<svg width="283" height="296" viewBox="0 0 283 296" fill="none" xmlns="http://www.w3.org/2000/svg">
<g clip-path="url(#clip0)">
<path d="M142.994 295.275C200.898 295.275 247.838 286.972 247.838 276.731C247.838 266.489 200.898 258.187 142.994 258.187C85.0907 258.187 38.1505 266.489 38.1505 276.731C38.1505 286.972 85.0907 295.275 142.994 295.275Z" fill="#3F3D56"/>
<path d="M55.6185 102.064C55.6185 75.0487 95.2319 53.1483 144.098 53.1483C192.963 53.1483 232.577 75.0487 232.577 102.064" stroke="#3F3D56" stroke-width="2" stroke-miterlimit="10"/>
<path d="M171.918 71.9824H99.9357C85.6986 47.9882 85.6986 23.9941 99.9357 0H171.918C152.011 23.9941 152.011 47.9882 171.918 71.9824Z" fill="#E6E6E6"/>
<path d="M150.78 8.56934H110.219V13.7109H150.78V8.56934Z" fill="#0C90DA"/>
<path d="M150.78 25.4224H97.0793V27.1363H150.78V25.4224Z" fill="white"/>
<path d="M150.78 34.2773H97.0793V35.9912H150.78V34.2773Z" fill="white"/>
<path d="M150.78 43.1324H97.0793V44.8462H150.78V43.1324Z" fill="white"/>
<path d="M127.606 56.2312C128.023 56.4223 128.525 56.1374 128.77 55.7502C129.706 54.2758 127.983 52.3747 128.356 50.6687C128.655 49.302 130.208 48.4908 130.526 47.1283C130.834 45.8044 129.884 44.3121 130.526 43.1142C131.03 42.1757 132.287 41.9287 133.339 42.0931C134.392 42.2575 135.39 42.7201 136.454 42.7849C137.87 42.8713 139.22 42.2477 140.605 41.9387C141.99 41.6298 143.68 41.7508 144.495 42.9127C145.541 44.4045 144.48 46.482 144.844 48.2674C145.133 49.6851 146.32 50.859 146.346 52.3057C146.355 52.8199 145.003 52.4057 145.075 52.9149C145.147 53.4242 144.508 52.9758 145.018 52.9153C145.227 52.8642 145.414 52.7481 145.552 52.5838C145.69 52.4194 145.773 52.2154 145.787 52.0011C145.848 51.577 146.645 51.4356 146.636 51.0072C146.614 50.0033 148.429 50.6802 148.728 49.7215C149.416 47.4867 149.275 45.079 148.331 42.9397C147.924 42.0264 147.369 41.1621 147.173 40.1817C146.906 38.8505 147.326 37.4215 146.886 36.1371C146.293 34.4062 144.332 33.5239 142.512 33.3447C140.691 33.1654 138.841 33.4862 137.03 33.222C135.408 32.9853 133.838 32.2824 132.202 32.3842C130.24 32.5064 128.532 33.7711 127.171 35.1911C125.81 36.611 124.656 38.2442 123.111 39.4607C122.638 39.7862 122.201 40.162 121.809 40.5814C121.022 41.5405 120.942 42.9068 121.161 44.1281C121.38 45.3493 121.857 46.5142 122.058 47.7385C122.247 48.889 122.188 50.0644 122.27 51.2275C122.351 52.3906 122.593 53.589 123.293 54.5211C123.574 54.9018 123.937 55.2136 124.357 55.4325C124.776 55.6515 125.239 55.772 125.712 55.7847C126.04 55.7923 126.316 55.498 126.647 55.5747C127.06 55.6706 127.24 56.063 127.606 56.2312Z" fill="#2F2E41"/>
<path d="M113.597 140.757L114.811 148.215L117.239 144.919L115.852 139.89L113.597 140.757Z" fill="#A0616A"/>
<path d="M115.158 84.3924L113.247 89.43C113.247 89.43 111.343 115.089 111.343 116.997C111.343 118.905 112.73 143.359 113.25 144.399C113.25 144.399 115.505 141.104 118.453 141.624C121.402 142.145 120.188 132.953 120.188 132.953L122.963 110.233L122.442 98.7871L115.158 84.3924Z" fill="#575A89"/>
<path opacity="0.1" d="M115.158 84.3924L113.247 89.43C113.247 89.43 111.343 115.089 111.343 116.997C111.343 118.905 112.73 143.359 113.25 144.399C113.25 144.399 115.505 141.104 118.453 141.624C121.402 142.145 120.188 132.953 120.188 132.953L122.963 110.233L122.442 98.7871L115.158 84.3924Z" fill="black"/>
<path d="M126.951 56.6437C126.951 56.6437 132.675 71.2118 129.379 73.9866C126.084 76.7615 147.763 69.304 147.763 69.304L147.243 67.3963C147.243 67.3963 140.132 64.6214 143.601 56.6437C147.069 48.6659 126.951 56.6437 126.951 56.6437Z" fill="#A0616A"/>
<path opacity="0.1" d="M126.951 56.6437C126.951 56.6437 132.675 71.2118 129.379 73.9866C126.084 76.7615 147.763 69.304 147.763 69.304L147.243 67.3963C147.243 67.3963 140.132 64.6214 143.601 56.6437C147.069 48.6659 126.951 56.6437 126.951 56.6437Z" fill="black"/>
<path d="M117.933 251.232C117.933 251.232 115.505 250.538 114.118 252.273C112.73 254.007 107.527 258.343 107.527 258.343C107.527 258.343 97.4683 257.302 96.0809 262.331C94.6935 267.361 111.863 267.361 116.025 266.147C120.188 264.933 121.055 266.147 121.055 266.147C121.055 266.147 133.889 267.187 133.889 265.106C133.889 263.025 132.675 255.915 132.675 255.915L117.933 251.232Z" fill="#575A89"/>
<path d="M158.689 262.852L156.434 269.789C156.434 269.789 149.671 279.154 153.486 281.062C157.302 282.97 170.829 284.877 170.829 279.848V270.309C170.829 270.309 169.442 263.545 168.054 262.852C166.667 262.158 158.689 262.852 158.689 262.852Z" fill="#575A89"/>
<path d="M120.389 138.219C120.389 138.219 113.077 144.572 113.25 145.44C113.424 146.307 116.892 201.978 116.892 201.978L118.8 238.051C118.8 238.051 116.372 246.549 117.586 248.457C118.8 250.365 115.852 250.885 115.852 250.885C115.852 250.885 128.339 262.158 133.542 257.302L138.398 194.347L151.752 240.132C151.752 240.132 154.006 264.412 156.608 264.412C159.209 264.412 169.789 264.933 169.615 263.545C169.442 262.158 170.135 251.579 168.921 245.335C167.707 239.092 159.556 189.664 159.556 189.664C159.556 189.664 158.855 147.291 160.68 143.33C162.505 139.37 159.73 135.207 159.73 135.207L147.59 130.525L133.021 132.259L120.389 138.219Z" fill="#2F2E41"/>
<path d="M135.103 62.5403C141.807 62.5403 147.243 57.105 147.243 50.4002C147.243 43.6954 141.807 38.2601 135.103 38.2601C128.398 38.2601 122.963 43.6954 122.963 50.4002C122.963 57.105 128.398 62.5403 135.103 62.5403Z" fill="#A0616A"/>
<path d="M164.586 76.5881C163.986 74.8912 162.975 73.3695 161.643 72.1589C160.312 70.9483 158.701 70.0866 156.955 69.6509C153.456 68.7709 150.035 67.611 146.722 66.1823C146.722 66.1823 134.409 72.0789 131.981 72.0789C129.553 72.0789 129.553 70.518 129.553 70.518C129.553 70.518 123.309 77.1084 120.014 77.8021C116.719 78.4958 111.863 86.647 113.597 91.1562C114.775 94.047 116.481 96.6935 118.627 98.9605C118.627 98.9605 117.933 123.241 120.188 127.75C120.188 127.75 114.638 138.329 119.841 139.023C125.044 139.716 144.988 137.288 148.457 139.716C151.925 142.145 158.342 139.196 159.209 142.491C160.076 145.787 161.984 146.48 161.984 146.48C161.984 146.48 164.933 141.798 163.198 139.023C161.464 136.248 164.586 76.5881 164.586 76.5881Z" fill="#575A89"/>
<path d="M151.752 141.798L148.977 143.532C148.977 143.532 151.925 153.764 153.139 154.111C154.353 154.458 157.211 145.362 157.211 145.362L151.752 141.798Z" fill="#A0616A"/>
<path d="M125.525 55.0171C125.942 55.2083 126.444 54.9233 126.689 54.5361C127.625 53.0618 125.902 51.1606 126.275 49.4547C126.574 48.0879 128.127 47.2767 128.445 45.9142C128.753 44.5903 127.803 43.098 128.445 41.9001C128.949 40.9616 130.206 40.7146 131.258 40.8791C132.311 41.0435 133.309 41.506 134.372 41.5708C135.789 41.6572 137.139 41.0336 138.524 40.7247C139.909 40.4157 141.599 40.5367 142.414 41.6986C143.46 43.1905 142.399 45.2679 142.763 47.0533C143.052 48.471 146.348 49.4661 146.647 48.5075C147.334 46.2727 147.193 43.8649 146.25 41.7257C145.843 40.8124 145.288 39.948 145.092 38.9676C144.825 37.6365 145.245 36.2074 144.805 34.9231C144.212 33.1922 142.251 32.3098 140.43 32.1306C138.61 31.9514 136.759 32.2722 134.949 32.0079C133.327 31.7712 131.757 31.0683 130.121 31.1701C128.159 31.2923 126.451 32.557 125.09 33.977C123.729 35.397 122.575 37.0302 121.03 38.2466C120.557 38.5722 120.12 38.9479 119.728 39.3674C118.941 40.3265 118.861 41.6928 119.08 42.914C119.299 44.1352 119.775 45.3001 119.977 46.5244C120.166 47.6749 120.107 48.8504 120.189 50.0135C120.27 51.1766 120.512 52.375 121.212 53.307C121.493 53.6878 121.856 53.9995 122.275 54.2185C122.695 54.4375 123.158 54.5579 123.631 54.5707C123.958 54.5782 124.235 54.2839 124.566 54.3607C124.979 54.4566 125.158 54.849 125.525 55.0171Z" fill="#2F2E41"/>
<path opacity="0.1" d="M157.735 79.6231L163.372 76.5881C163.372 76.5881 177.073 109.193 173.777 118.211C170.482 127.23 157.822 145.786 157.822 145.786C157.822 145.786 147.763 143.705 148.804 141.624C149.844 139.543 156.608 126.189 157.128 124.455C157.648 122.72 161.117 111.447 159.556 110.233C157.995 109.019 154.96 80.8371 154.96 80.8371L157.735 79.6231Z" fill="black"/>
<path d="M157.648 74.6804L164.586 76.5881C164.586 76.5881 178.287 109.193 174.991 118.211C171.696 127.23 159.036 145.787 159.036 145.787C159.036 145.787 148.977 143.705 150.018 141.624C151.058 139.543 157.822 126.189 158.342 124.455C158.862 122.72 162.331 111.447 160.77 110.233C159.209 109.019 151.752 79.0161 151.752 79.0161L157.648 74.6804Z" fill="#575A89"/>
<path d="M232.577 102.064C232.577 130.388 192.963 153.349 144.098 153.349C95.2319 153.349 55.6185 130.388 55.6185 102.064" stroke="#3F3D56" stroke-width="2" stroke-miterlimit="10"/>
<path d="M216.483 154.077C196.705 164.744 170.899 171.198 142.67 171.198C115.605 171.198 90.7667 165.265 71.3338 155.374" stroke="#3F3D56" stroke-width="2" stroke-miterlimit="10"/>
<path d="M188.283 39.9069C225.922 49.7997 252.727 71.5603 255.22 97.1896" stroke="#3F3D56" stroke-width="2" stroke-miterlimit="10"/>
<path d="M35.3628 80.5312C41.7047 68.8751 53.2901 58.6173 68.4694 50.7368" stroke="#3F3D56" stroke-width="2" stroke-miterlimit="10"/>
<path d="M113.174 205.304H185.156C199.393 181.31 199.393 157.316 185.156 133.322H113.174C133.08 157.316 133.08 181.31 113.174 205.304Z" fill="#F2F2F2"/>
<path d="M177.553 147.032H136.991V152.174H177.553V147.032Z" fill="#0C90DA"/>
<path d="M187.55 162.457H133.849V164.171H187.55V162.457Z" fill="white"/>
<path d="M187.55 171.312H133.849V173.026H187.55V171.312Z" fill="white"/>
<path d="M82.6602 156.446H10.6778C-3.55927 132.451 -3.55927 108.457 10.6778 84.4631H82.6602C62.7534 108.457 62.7534 132.451 82.6602 156.446Z" fill="#F2F2F2"/>
<path d="M59.2374 93.0325H18.6758V98.1741H59.2374V93.0325Z" fill="#0C90DA"/>
<path d="M63.522 107.315H9.82086V109.029H63.522V107.315Z" fill="white"/>
<path d="M63.522 116.17H9.82086V117.884H63.522V116.17Z" fill="white"/>
<path d="M63.522 125.025H9.82086V126.738H63.522V125.025Z" fill="white"/>
<path d="M63.522 133.88H9.82086V135.593H63.522V133.88Z" fill="white"/>
<path d="M200.34 123.288H272.322C286.559 99.2938 286.559 75.2997 272.322 51.3055H200.34C220.247 75.2997 220.247 99.2938 200.34 123.288Z" fill="#F2F2F2"/>
<path d="M263.862 58.4467H223.3V63.5882H263.862V58.4467Z" fill="#0C90DA"/>
<path d="M272.717 72.7288H219.016V74.4427H272.717V72.7288Z" fill="white"/>
</g>
<defs>
<clipPath id="clip0">
<rect width="283" height="295.275" fill="white"/>
</clipPath>
</defs>
</svg>
